<?xml version="1.0" encoding="utf-8"?>
<!-- Generator: Adobe Illustrator 25.0.0, SVG Export Plug-In . SVG Version: 6.00 Build 0)  -->
<svg version="1.1" xmlns="http://www.w3.org/2000/svg" xmlns:xlink="http://www.w3.org/1999/xlink" x="0px" y="0px"
	 viewBox="0 0 1080 1080" style="enable-background:new 0 0 1080 1080;" xml:space="preserve">
<style type="text/css">
	.st0{display:none;}
	.st1{display:inline;}
	.st2{display:inline;fill:#FFFFFF;}
	.st3{fill:#FFFFFF;}
</style>
<g id="Capa_1" class="st0">
	<g class="st1">
		<rect width="1080" height="1080"/>
	</g>
	<g>
		<path class="st2" d="M426.2,609.3v-85.8c0-13.5-1.6-22.8-4.7-28c-3.5-5.3-9.4-7.9-17.5-7.9c-10.5,0-17.6,3.6-21.6,10.7
			c-4,7.1-6.1,21.9-6.1,44.4v66.6h-53.6v-85.8c0-14-1.7-23.5-5.1-28.3c-3.1-5.1-8.9-7.6-17.3-7.6c-10.5,0-17.8,3.5-22,10.4
			c-4,7.1-6.1,22-6.1,44.7v66.6h-53.9V452.1H273v27.4c6.6-11,14.2-19.2,22.7-24.4c8.3-5.3,18.4-7.9,30.2-7.9
			c12.8,0,23.3,2.4,31.6,7.3c7.9,5,13.6,12.4,17.3,22.3c6.3-10.3,13.8-17.7,22.5-22.3c8.6-4.9,18.9-7.3,31-7.3
			c9.4,0,17.7,1.6,24.7,4.7c7.3,3.4,13.3,8.2,18,14.3c4,4.9,6.7,10.6,8.3,17.3c1.6,6.1,2.3,17,2.3,32.5v3.4v90H426.2z"/>
		<path class="st2" d="M521.2,368h52.9v82.3c0,8.1-0.1,13.7-0.3,16.7c-0.4,5.3-0.8,9.1-1.2,11.4c6.5-11.4,13.9-19.3,22.2-23.9
			c8.3-4.9,19.2-7.3,32.6-7.3c21,0,38,7.6,51.1,22.9c13,15.5,19.5,35.8,19.5,60.9c0,25.8-6.5,46.3-19.5,61.5
			c-13.1,15.4-30.7,23-53,23c-11.1,0-20.9-2.6-29.4-7.9c-8.8-5.1-16.7-13-23.8-23.7v25.5h-51.1V368z M570.4,530.9
			c0,12.5,3.3,22.2,9.8,29.1c6,6.9,14.7,10.4,26.1,10.4c11.3,0,20.1-3.5,26.4-10.4c6.3-6.9,9.5-16.6,9.5-29.1
			c0-12.3-3.2-22-9.5-28.9c-6.4-7-15.2-10.6-26.4-10.6c-11.3,0-20,3.5-26.1,10.6C573.6,508.9,570.4,518.5,570.4,530.9z"/>
	</g>
	<g class="st1">
		<circle cx="540" cy="539.5" r="531.5"/>
		<g>
			<path class="st3" d="M673.2,601.4c-14.4-16.8-33.2-25.2-56.3-25.2c-14.8,0-26.7,2.7-35.9,8.1c-9.1,5-17.3,13.8-24.5,26.3
				c0.5-2.5,0.9-6.7,1.4-12.5c0.2-3.3,0.3-9.4,0.3-18.4V489l0,0l0-98.3c0-16.4-0.8-27.8-2.5-34.2c-1.6-7-4.5-13.1-8.7-18.2
				c-4.9-6.4-11.2-11.5-18.9-15.1c-7.4-3.3-16.1-4.9-26-4.9c-12.7,0-23.5,2.6-32.6,7.7c-9.2,4.8-17.1,12.6-23.7,23.4
				c-3.8-10.4-9.9-18.2-18.2-23.4c-8.7-5.1-19.8-7.7-33.3-7.7c-12.5,0-23,2.8-31.8,8.4c-9,5.6-16.9,14.1-23.9,25.7v-28.8h-57.4V489
				H338v-70.1c0-23.9,2.1-39.6,6.4-47c4.4-7.3,12.1-11,23.1-11c8.9,0,14.9,2.7,18.2,8c3.6,5.1,5.4,15.1,5.4,29.8V489h56.4v-70.1
				c0-23.7,2.1-39.3,6.4-46.7c4.1-7.5,11.7-11.3,22.7-11.3c8.6,0,14.8,2.8,18.5,8.4c3.3,5.5,4.9,15.3,4.9,29.5l0,90.3l0,0V755h56.3
				v-28.1c7.8,11.8,16.5,20.5,26.2,26.1c9.4,5.8,20.2,8.8,32.4,8.8c24.5,0,43.9-8.5,58.4-25.4c14.3-16.7,21.5-39.3,21.5-67.8
				C694.7,640.8,687.5,618.5,673.2,601.4z M622.8,700.6c-7,7.6-16.7,11.5-29.1,11.5c-12.6,0-22.1-3.8-28.8-11.5
				c-7.2-7.5-10.8-18.2-10.8-32c0-13.7,3.6-24.3,10.8-31.9c6.7-7.8,16.3-11.6,28.8-11.6c12.3,0,22,3.9,29.1,11.6
				c7,7.7,10.5,18.3,10.5,31.9C633.3,682.3,629.8,693,622.8,700.6z"/>
			<path class="st3" d="M729.5,726.9c0-9.8,3.3-18,9.8-24.5c6.6-6.6,14.8-9.9,24.5-9.9c10.1,0,18.4,3.3,25,9.9
				c6.5,6.5,9.8,14.7,9.8,24.5c0,9.9-3.3,18.1-9.8,24.6c-7,6.7-15.3,10.1-25,10.1c-9.4,0-17.6-3.4-24.5-10.1
				C732.8,745.1,729.5,736.9,729.5,726.9z"/>
		</g>
	</g>
</g>
<g id="Capa_1_copia">
	<g class="st0">
		<rect class="st1" width="1080" height="1080"/>
	</g>
	<g class="st0">
		<path class="st2" d="M426.2,609.3v-85.8c0-13.5-1.6-22.8-4.7-28c-3.5-5.3-9.4-7.9-17.5-7.9c-10.5,0-17.6,3.6-21.6,10.7
			c-4,7.1-6.1,21.9-6.1,44.4v66.6h-53.6v-85.8c0-14-1.7-23.5-5.1-28.3c-3.1-5.1-8.9-7.6-17.3-7.6c-10.5,0-17.8,3.5-22,10.4
			c-4,7.1-6.1,22-6.1,44.7v66.6h-53.9V452.1H273v27.4c6.6-11,14.2-19.2,22.7-24.4c8.3-5.3,18.4-7.9,30.2-7.9
			c12.8,0,23.3,2.4,31.6,7.3c7.9,5,13.6,12.4,17.3,22.3c6.3-10.3,13.8-17.7,22.5-22.3c8.6-4.9,18.9-7.3,31-7.3
			c9.4,0,17.7,1.6,24.7,4.7c7.3,3.4,13.3,8.2,18,14.3c4,4.9,6.7,10.6,8.3,17.3c1.6,6.1,2.3,17,2.3,32.5v3.4v90H426.2z"/>
		<path class="st2" d="M521.2,368h52.9v82.3c0,8.1-0.1,13.7-0.3,16.7c-0.4,5.3-0.8,9.1-1.2,11.4c6.5-11.4,13.9-19.3,22.2-23.9
			c8.3-4.9,19.2-7.3,32.6-7.3c21,0,38,7.6,51.1,22.9c13,15.5,19.5,35.8,19.5,60.9c0,25.8-6.5,46.3-19.5,61.5
			c-13.1,15.4-30.7,23-53,23c-11.1,0-20.9-2.6-29.4-7.9c-8.8-5.1-16.7-13-23.8-23.7v25.5h-51.1V368z M570.4,530.9
			c0,12.5,3.3,22.2,9.8,29.1c6,6.9,14.7,10.4,26.1,10.4c11.3,0,20.1-3.5,26.4-10.4c6.3-6.9,9.5-16.6,9.5-29.1
			c0-12.3-3.2-22-9.5-28.9c-6.4-7-15.2-10.6-26.4-10.6c-11.3,0-20,3.5-26.1,10.6C573.6,508.9,570.4,518.5,570.4,530.9z"/>
	</g>
	<g>
		<circle cx="540" cy="539.5" r="531.5"/>
		<g>
			<path class="st3" d="M761.1,616.7C743,595.6,719.4,585,690.4,585c-18.6,0-33.6,3.4-45.1,10.2c-11.5,6.3-21.7,17.4-30.8,33.1
				c0.6-3.2,1.2-8.4,1.7-15.8c0.3-4.2,0.4-11.9,0.4-23.1v-114l0,0l0-123.5c0-20.6-1-34.9-3.1-43c-2.1-8.8-5.7-16.4-10.9-22.9
				c-6.2-8.1-14.1-14.4-23.7-19c-9.3-4.1-20.2-6.2-32.7-6.2c-15.9,0-29.6,3.2-41,9.7c-11.5,6-21.4,15.9-29.8,29.4
				c-4.8-13-12.4-22.8-22.9-29.4c-11-6.5-24.9-9.7-41.8-9.7c-15.7,0-29,3.5-40,10.5c-11.3,7-21.3,17.8-30.1,32.3v-36.2h-72.1v208
				h71.2v-88.1c0-30.1,2.7-49.8,8-59.1c5.5-9.2,15.2-13.8,29-13.8c11.1,0,18.7,3.4,22.9,10.1c4.5,6.5,6.8,18.9,6.8,37.5v113.5h70.8
				v-88.1c0-29.8,2.7-49.3,8-58.7c5.2-9.5,14.7-14.2,28.5-14.2c10.8,0,18.5,3.5,23.2,10.5c4.1,6.9,6.2,19.2,6.2,37.1l0,113.5l0,0
				v334.2h70.7v-35.4c9.8,14.8,20.7,25.7,32.9,32.8c11.8,7.3,25.4,11,40.8,11c30.8,0,55.2-10.6,73.4-31.9c18-21,27-49.4,27-85.2
				C788.1,666.2,779.1,638.1,761.1,616.7z M697.8,741.4c-8.7,9.6-20.9,14.4-36.6,14.4c-15.8,0-27.8-4.8-36.2-14.4
				c-9-9.5-13.6-22.9-13.6-40.2c0-17.2,4.5-30.6,13.6-40c8.5-9.8,20.5-14.6,36.2-14.6c15.5,0,27.7,4.9,36.6,14.6
				c8.8,9.6,13.1,23,13.1,40C710.9,718.3,706.5,731.8,697.8,741.4z"/>
		</g>
	</g>
</g>
</svg>
