<?xml version="1.0" encoding="utf-8"?>
<!-- Generator: Adobe Illustrator 25.0.0, SVG Export Plug-In . SVG Version: 6.00 Build 0)  -->
<svg version="1.1" id="Capa_1" xmlns="http://www.w3.org/2000/svg" xmlns:xlink="http://www.w3.org/1999/xlink" x="0px" y="0px"
	 viewBox="0 0 1080 1080" style="enable-background:new 0 0 1080 1080;" xml:space="preserve">
<style type="text/css">
	.st0{display:none;}
	.st1{display:inline;}
	.st2{fill:#FFFFFF;}
	.st3{display:inline;fill:#FFFFFF;}
</style>
<g id="Capa_1_1_" class="st0">
	<rect class="st1" width="1080" height="1080"/>
	<g class="st1">
		<path class="st2" d="M426.2,609.3v-85.8c0-13.5-1.6-22.8-4.7-28c-3.5-5.3-9.4-7.9-17.5-7.9c-10.5,0-17.6,3.6-21.6,10.7
			s-6.1,21.9-6.1,44.4v66.6h-53.6v-85.8c0-14-1.7-23.5-5.1-28.3c-3.1-5.1-8.9-7.6-17.3-7.6c-10.5,0-17.8,3.5-22,10.4
			c-4,7.1-6.1,22-6.1,44.7v66.6h-53.9V452.1H273v27.4c6.6-11,14.2-19.2,22.7-24.4c8.3-5.3,18.4-7.9,30.2-7.9
			c12.8,0,23.3,2.4,31.6,7.3c7.9,5,13.6,12.4,17.3,22.3c6.3-10.3,13.8-17.7,22.5-22.3c8.6-4.9,18.9-7.3,31-7.3
			c9.4,0,17.7,1.6,24.7,4.7c7.3,3.4,13.3,8.2,18,14.3c4,4.9,6.7,10.6,8.3,17.3c1.6,6.1,2.3,17,2.3,32.5v3.4v90h-55.4V609.3z"/>
		<path class="st2" d="M521.2,368h52.9v82.3c0,8.1-0.1,13.7-0.3,16.7c-0.4,5.3-0.8,9.1-1.2,11.4c6.5-11.4,13.9-19.3,22.2-23.9
			c8.3-4.9,19.2-7.3,32.6-7.3c21,0,38,7.6,51.1,22.9c13,15.5,19.5,35.8,19.5,60.9c0,25.8-6.5,46.3-19.5,61.5
			c-13.1,15.4-30.7,23-53,23c-11.1,0-20.9-2.6-29.4-7.9c-8.8-5.1-16.7-13-23.8-23.7v25.5h-51.1V368z M570.4,530.9
			c0,12.5,3.3,22.2,9.8,29.1c6,6.9,14.7,10.4,26.1,10.4c11.3,0,20.1-3.5,26.4-10.4c6.3-6.9,9.5-16.6,9.5-29.1
			c0-12.3-3.2-22-9.5-28.9c-6.4-7-15.2-10.6-26.4-10.6c-11.3,0-20,3.5-26.1,10.6C573.6,508.9,570.4,518.5,570.4,530.9z"/>
	</g>
	<g class="st1">
		<circle cx="540" cy="539.5" r="531.5"/>
		<g>
			<path class="st2" d="M673.2,601.4c-14.4-16.8-33.2-25.2-56.3-25.2c-14.8,0-26.7,2.7-35.9,8.1c-9.1,5-17.3,13.8-24.5,26.3
				c0.5-2.5,0.9-6.7,1.4-12.5c0.2-3.3,0.3-9.4,0.3-18.4V489l0,0v-98.3c0-16.4-0.8-27.8-2.5-34.2c-1.6-7-4.5-13.1-8.7-18.2
				c-4.9-6.4-11.2-11.5-18.9-15.1c-7.4-3.3-16.1-4.9-26-4.9c-12.7,0-23.5,2.6-32.6,7.7c-9.2,4.8-17.1,12.6-23.7,23.4
				c-3.8-10.4-9.9-18.2-18.2-23.4c-8.7-5.1-19.8-7.7-33.3-7.7c-12.5,0-23,2.8-31.8,8.4c-9,5.6-16.9,14.1-23.9,25.7v-28.8h-57.4V489
				H338v-70.1c0-23.9,2.1-39.6,6.4-47c4.4-7.3,12.1-11,23.1-11c8.9,0,14.9,2.7,18.2,8c3.6,5.1,5.4,15.1,5.4,29.8V489h56.4v-70.1
				c0-23.7,2.1-39.3,6.4-46.7c4.1-7.5,11.7-11.3,22.7-11.3c8.6,0,14.8,2.8,18.5,8.4c3.3,5.5,4.9,15.3,4.9,29.5v90.3l0,0V755h56.3
				v-28.1c7.8,11.8,16.5,20.5,26.2,26.1c9.4,5.8,20.2,8.8,32.4,8.8c24.5,0,43.9-8.5,58.4-25.4c14.3-16.7,21.5-39.3,21.5-67.8
				C694.7,640.8,687.5,618.5,673.2,601.4z M622.8,700.6c-7,7.6-16.7,11.5-29.1,11.5c-12.6,0-22.1-3.8-28.8-11.5
				c-7.2-7.5-10.8-18.2-10.8-32c0-13.7,3.6-24.3,10.8-31.9c6.7-7.8,16.3-11.6,28.8-11.6c12.3,0,22,3.9,29.1,11.6
				c7,7.7,10.5,18.3,10.5,31.9C633.3,682.3,629.8,693,622.8,700.6z"/>
			<path class="st2" d="M729.5,726.9c0-9.8,3.3-18,9.8-24.5c6.6-6.6,14.8-9.9,24.5-9.9c10.1,0,18.4,3.3,25,9.9
				c6.5,6.5,9.8,14.7,9.8,24.5c0,9.9-3.3,18.1-9.8,24.6c-7,6.7-15.3,10.1-25,10.1c-9.4,0-17.6-3.4-24.5-10.1
				C732.8,745.1,729.5,736.9,729.5,726.9z"/>
		</g>
	</g>
</g>
<g id="Capa_1_copia">
	<rect class="st0" width="1080" height="1080"/>
	<g class="st0">
		<path class="st3" d="M426.2,609.3v-85.8c0-13.5-1.6-22.8-4.7-28c-3.5-5.3-9.4-7.9-17.5-7.9c-10.5,0-17.6,3.6-21.6,10.7
			s-6.1,21.9-6.1,44.4v66.6h-53.6v-85.8c0-14-1.7-23.5-5.1-28.3c-3.1-5.1-8.9-7.6-17.3-7.6c-10.5,0-17.8,3.5-22,10.4
			c-4,7.1-6.1,22-6.1,44.7v66.6h-53.9V452.1H273v27.4c6.6-11,14.2-19.2,22.7-24.4c8.3-5.3,18.4-7.9,30.2-7.9
			c12.8,0,23.3,2.4,31.6,7.3c7.9,5,13.6,12.4,17.3,22.3c6.3-10.3,13.8-17.7,22.5-22.3c8.6-4.9,18.9-7.3,31-7.3
			c9.4,0,17.7,1.6,24.7,4.7c7.3,3.4,13.3,8.2,18,14.3c4,4.9,6.7,10.6,8.3,17.3c1.6,6.1,2.3,17,2.3,32.5v3.4v90h-55.4V609.3z"/>
		<path class="st3" d="M521.2,368h52.9v82.3c0,8.1-0.1,13.7-0.3,16.7c-0.4,5.3-0.8,9.1-1.2,11.4c6.5-11.4,13.9-19.3,22.2-23.9
			c8.3-4.9,19.2-7.3,32.6-7.3c21,0,38,7.6,51.1,22.9c13,15.5,19.5,35.8,19.5,60.9c0,25.8-6.5,46.3-19.5,61.5
			c-13.1,15.4-30.7,23-53,23c-11.1,0-20.9-2.6-29.4-7.9c-8.8-5.1-16.7-13-23.8-23.7v25.5h-51.1V368z M570.4,530.9
			c0,12.5,3.3,22.2,9.8,29.1c6,6.9,14.7,10.4,26.1,10.4c11.3,0,20.1-3.5,26.4-10.4c6.3-6.9,9.5-16.6,9.5-29.1
			c0-12.3-3.2-22-9.5-28.9c-6.4-7-15.2-10.6-26.4-10.6c-11.3,0-20,3.5-26.1,10.6C573.6,508.9,570.4,518.5,570.4,530.9z"/>
	</g>
	<g>
		<circle class="st0" cx="540" cy="539.5" r="531.5"/>
		<g>
			<path class="st2" d="M944.2,693.7c-32.3-37.7-74.5-56.6-126.4-56.6c-33.2,0-59.9,6.1-80.6,18.2c-20.4,11.2-38.8,31-55,59
				c1.1-5.6,2-15,3.1-28.1c0.4-7.4,0.7-21.1,0.7-41.3V441.4l0,0V220.8c0-36.8-1.8-62.4-5.6-76.8c-3.6-15.7-10.1-29.4-19.5-40.9
				c-11-14.4-25.1-25.8-42.4-33.9c-16.6-7.4-36.1-11-58.4-11c-28.5,0-52.7,5.8-73.2,17.3c-20.7,10.8-38.4,28.3-53.2,52.5
				c-8.5-23.3-22.2-40.9-40.9-52.5c-19.5-11.4-44.4-17.3-74.7-17.3c-28.1,0-51.6,6.3-71.4,18.9c-20.2,12.6-37.9,31.9-53.6,57.7V69.9
				H64.3v371.5h127.3V284.1c0-53.6,4.7-88.9,14.4-105.5c9.9-16.4,27.2-24.7,51.9-24.7c20,0,33.4,6.1,40.9,18
				c8.1,11.4,12.1,33.9,12.1,66.9v202.7h126.6V284.1c0-53.2,4.7-88.2,14.4-104.8c9.2-16.8,26.3-25.4,51-25.4
				c19.3,0,33.2,6.3,41.5,18.9c7.4,12.3,11,34.3,11,66.2v202.7l0,0v596.8h126.4v-63.1c17.5,26.5,37,46,58.8,58.6
				c21.1,13,45.3,19.8,72.7,19.8c55,0,98.5-19.1,131.1-57c32.1-37.9,48-88.4,48-152.4C992.3,782.1,976.3,731.9,944.2,693.7z
				 M831.1,916.4c-15.7,17.1-37.5,25.8-65.3,25.8c-28.3,0-49.6-8.5-64.6-25.8c-16.2-16.8-24.2-40.9-24.2-71.8
				c0-30.8,8.1-54.5,24.2-71.6c15-17.5,36.6-26,64.6-26c27.6,0,49.4,8.8,65.3,26c15.7,17.3,23.6,41.1,23.6,71.6
				C854.4,875.3,846.6,899.1,831.1,916.4z"/>
		</g>
	</g>
</g>
</svg>
